# xmcd CD database file
#
# Track frame offsets:
#	150
#	15900
#	28512
#	42412
#	59287
#	72037
#	85350
#	98540
#	115700
#	126825
#	143600
#	155525
#	171950
#	190012
#	204425
#	219125
#	234200
#	249575
#
# Disc length: 3525 seconds
#
# Revision: 4
# Processed by: cddbd v1.5.2PL0 Copyright (c) Steve Scherf et al.
# Submitted via: CDex 1.70beta2
#
DISCID=df0dc312
DTITLE=寄相思 - 雅音小集06
DYEAR=1900
DGENRE=Musical
TTITLE0=寒雨曲
TTITLE1=尋夢園
TTITLE2=昨夜夢醒時
TTITLE3=水常流
TTITLE4=秋詞
TTITLE5=當作沒有愛過我
TTITLE6=我的心裡沒有他
TTITLE7=誰人禁止我的愛
TTITLE8=出人頭地
TTITLE9=相見不如懷念
TTITLE10=雨的旋律
TTITLE11=不要拋棄我
TTITLE12=人兒不能留
TTITLE13=心上人
TTITLE14=意亂情迷
TTITLE15=梨花淚
TTITLE16=一縷相思情
TTITLE17=淚灑愛河橋
EXTD=
EXTT0=
EXTT1=
EXTT2=
EXTT3=
EXTT4=
EXTT5=
EXTT6=
EXTT7=
EXTT8=
EXTT9=
EXTT10=
EXTT11=
EXTT12=
EXTT13=
EXTT14=
EXTT15=
EXTT16=
EXTT17=
PLAYORDER=
